<?xml version="1.0" encoding="UTF-8"?>
<svg xmlns="http://www.w3.org/2000/svg" xmlnsXlink="http://www.w3.org/1999/xlink" width="35pt" height="49pt" viewBox="0 0 35 49" version="1.1">
    <defs>
        <linearGradient id="linear0" gradientUnits="userSpaceOnUse" x1="0.461198" y1="0.009375" x2="0.465104" y2="1" gradientTransform="matrix(31.503906,0,0,36.652344,2.203125,4.792969)">
            <stop offset="0" style="stop-color:rgb(100%,0%,0%);stop-opacity:1;"/>
            <stop offset="1" style="stop-color:rgb(49.803922%,0%,49.803922%);stop-opacity:0.996078;"/>
        </linearGradient>
    </defs>
    <g id="surface1">
        <path style=" stroke:none;fill-rule:nonzero;fill:url(#linear0);" d="M 13.621094 4.792969 L 14.570312 6.425781 C 16.398438 9.589844 16.949219 11.9375 16.917969 16.453125 C 16.894531 20.148438 16.738281 21.097656 15.617188 24.394531 C 14.484375 27.734375 14.367188 28.476562 14.523438 31.261719 L 14.691406 34.386719 L 13.921875 32.667969 C 13.039062 30.730469 12.953125 28.632812 13.464844 21.328125 L 13.789062 16.667969 L 12.597656 14.269531 C 11.375 11.816406 8.3125 8.371094 8.816406 10.015625 C 9.175781 11.199219 8.152344 13.824219 5.695312 18.039062 C 2.644531 23.273438 1.992188 25.320312 2.203125 28.851562 C 2.457031 33.125 4.628906 37.019531 8.40625 39.976562 C 9.640625 40.945312 10.664062 41.445312 11.441406 41.445312 L 12.609375 41.445312 L 10.984375 39.691406 C 8.734375 37.277344 7.4375 34.296875 7.203125 31.023438 C 7.0625 29.074219 7.132812 28.429688 7.453125 28.625 C 7.695312 28.773438 7.886719 29.207031 7.886719 29.578125 C 7.886719 30.664062 10.046875 34.640625 11.621094 36.460938 C 12.414062 37.378906 14.09375 38.875 15.34375 39.785156 C 17.507812 41.367188 17.726562 41.445312 20.292969 41.445312 C 21.769531 41.445312 22.914062 41.316406 22.832031 41.15625 C 20.523438 36.660156 20.410156 36.289062 20.421875 33.242188 C 20.4375 30.421875 20.582031 29.894531 22.242188 26.371094 C 24.300781 21.992188 24.816406 20.050781 24.832031 16.796875 C 24.851562 12.082031 22.585938 8.535156 18.21875 6.449219 C 16.882812 5.808594 15.300781 5.167969 14.703125 5.03125 Z M 29.695312 17.214844 L 29.394531 18.933594 C 28.96875 21.375 28.4375 22.535156 26.203125 25.992188 C 25.117188 27.667969 24.007812 29.609375 23.722656 30.296875 C 22.917969 32.242188 23.367188 36.222656 24.6875 38.867188 L 25.78125 41.074219 L 26.265625 39.429688 C 26.632812 38.171875 27.460938 37.101562 29.804688 34.898438 C 33.203125 31.699219 33.703125 30.652344 33.707031 26.71875 C 33.707031 23.832031 32.933594 21.582031 31.105469 19.125 Z M 29.695312 17.214844 "/>
    </g>
</svg>
